HIERARCHY
ROOT Hips
{
	OFFSET -0.001795 -0.223333 0.028219
	CHANNELS 6 Xposition Yposition Zposition Zrotation Yrotation Xrotation 
	JOINT LeftUpLeg
	{
		OFFSET 0.069520 -0.091406 -0.006815
		CHANNELS 3 Zrotation Yrotation Xrotation
		JOINT LeftLeg
		{
			OFFSET 0.034277 -0.375199 -0.004496
			CHANNELS 3 Zrotation Yrotation Xrotation
			JOINT LeftFoot
			{
				OFFSET -0.013596 -0.397961 -0.043693
				CHANNELS 3 Zrotation Yrotation Xrotation
				JOINT LeftToe
				{
					OFFSET 0.026358 -0.055791 0.119288
					CHANNELS 3 Zrotation Yrotation Xrotation
					End Site
					{
						OFFSET 0.000000 0.000000 0.000000
					}
				}
			}
		}
	}
	JOINT RightUpLeg
	{
		OFFSET -0.067670 -0.090522 -0.004320
		CHANNELS 3 Zrotation Yrotation Xrotation
		JOINT RightLeg
		{
			OFFSET -0.038290 -0.382569 -0.008850
			CHANNELS 3 Zrotation Yrotation Xrotation
			JOINT RightFoot
			{
				OFFSET 0.015774 -0.398415 -0.042312
				CHANNELS 3 Zrotation Yrotation Xrotation
				JOINT RightToe
				{
					OFFSET -0.025372 -0.048144 0.123348
					CHANNELS 3 Zrotation Yrotation Xrotation
					End Site
					{
						OFFSET 0.000000 0.000000 0.000000
					}
				}
			}
		}
	}
	JOINT Spine
	{
		OFFSET -0.002533 0.108963 -0.026696
		CHANNELS 3 Zrotation Yrotation Xrotation
		JOINT Spine1
		{
			OFFSET 0.005487 0.135180 0.001092
			CHANNELS 3 Zrotation Yrotation Xrotation
			JOINT Spine2
			{
				OFFSET 0.001457 0.052922 0.025425
				CHANNELS 3 Zrotation Yrotation Xrotation
				JOINT Neck
				{
					OFFSET -0.002778 0.213870 -0.042857
					CHANNELS 3 Zrotation Yrotation Xrotation
					JOINT Head
					{
						OFFSET 0.005152 0.064970 0.051349
						CHANNELS 3 Zrotation Yrotation Xrotation
						End Site
						{
							OFFSET 0.000000 0.000000 0.000000
						}
					}
				}
				JOINT LeftShoulder
				{
					OFFSET 0.078845 0.121749 -0.034090
					CHANNELS 3 Zrotation Yrotation Xrotation
					JOINT LeftArm
					{
						OFFSET 0.090977 0.030469 -0.008868
						CHANNELS 3 Zrotation Yrotation Xrotation
						JOINT LeftForeArm
						{
							OFFSET 0.259612 -0.012772 -0.027456
							CHANNELS 3 Zrotation Yrotation Xrotation
							JOINT LeftHand
							{
								OFFSET 0.249234 0.008986 -0.001171
								CHANNELS 3 Zrotation Yrotation Xrotation
								End Site
								{
									OFFSET 0.000000 0.000000 0.000000
								}
							}
						}
					}
				}
				JOINT RightShoulder
				{
					OFFSET -0.081759 0.118833 -0.038615
					CHANNELS 3 Zrotation Yrotation Xrotation
					JOINT RightArm
					{
						OFFSET -0.096012 0.032551 -0.009143
						CHANNELS 3 Zrotation Yrotation Xrotation
						JOINT RightForeArm
						{
							OFFSET -0.253742 -0.013329 -0.021401
							CHANNELS 3 Zrotation Yrotation Xrotation
							JOINT RightHand
							{
								OFFSET -0.255298 0.007772 -0.005559
								CHANNELS 3 Zrotation Yrotation Xrotation
								End Site
								{
									OFFSET 0.000000 0.000000 0.000000
								}
							}
						}
					}
				}
			}
		}
	}
}
MOTION
Frames: 5
Frame Time: 0.050000
-0.136090 0.866743 1.062319 -1.857908 -16.100337 2.762837 4.506927 0.506627 -41.386424 1.886440 -0.310758 31.441205 -4.479962 -3.984142 12.069946 0.000000 0.000000 0.000000 4.491450 0.634478 -6.313569 -5.764164 4.474881 27.318446 -9.018165 -15.588723 -16.424982 0.000000 0.000000 0.000000 -1.407908 -0.024911 17.042891 -1.290880 0.557526 -1.971879 3.061787 5.864253 2.348994 4.007809 -0.824008 -22.632588 0.000000 0.000000 0.000000 -16.546576 -14.863975 6.725542 -42.135356 -34.861535 7.233895 62.982703 -86.261521 -54.112351 0.000000 0.000000 0.000000 15.442816 23.619834 9.919087 38.822366 41.561911 9.617274 -0.123230 68.209589 1.801564 0.000000 0.000000 0.000000 
-0.131327 0.855352 1.095100 -1.331290 -14.932163 3.471492 1.730208 -0.741787 -42.501095 3.975007 -1.260956 35.029063 -3.595507 -4.806678 5.858086 0.000000 0.000000 0.000000 3.693990 0.570056 -5.934573 -6.181440 4.937679 29.285263 -9.656772 -18.114888 -17.346909 0.000000 0.000000 0.000000 -1.639275 -0.030240 16.193778 -1.548817 0.755541 -0.006749 2.823765 6.204862 1.196363 4.900638 -1.249883 -21.640971 0.000000 0.000000 0.000000 -16.574325 -15.953130 7.019641 -41.574873 -35.936909 7.645271 54.961928 -85.448221 -46.314905 0.000000 0.000000 0.000000 16.062974 24.120924 10.557387 37.062503 41.377786 9.062457 -6.012621 67.184611 -1.811496 0.000000 0.000000 0.000000 
-0.127046 0.855419 1.133814 -0.860706 -15.209754 3.868463 0.905308 -1.052550 -41.713462 3.136809 -0.765425 37.377491 -2.467173 -4.375426 1.699296 0.000000 0.000000 0.000000 3.001015 0.357194 -4.386029 -5.515481 5.119951 31.369931 -10.328675 -21.132600 -14.535339 0.000000 0.000000 0.000000 -2.399308 0.058114 13.902152 -1.914927 0.934606 0.094405 3.541777 7.140063 2.896264 3.822014 -0.583191 -22.433864 0.000000 0.000000 0.000000 -16.978514 -15.914366 6.967186 -42.455218 -35.417957 7.515060 35.889750 -86.272548 -28.792208 0.000000 0.000000 0.000000 15.543940 24.624706 10.937279 37.279900 40.175537 8.588537 -8.155625 67.425327 -2.999896 0.000000 0.000000 0.000000 
-0.124601 0.866710 1.176617 -0.063319 -14.355407 4.614589 -0.611753 -1.802804 -38.708734 2.479367 -0.550596 35.529340 -1.932906 -4.284313 -0.606223 0.000000 0.000000 0.000000 2.485684 0.507367 -5.558084 -3.879753 5.346089 36.357034 -11.348185 -25.517403 -4.098586 0.000000 0.000000 0.000000 -3.545336 0.176058 11.654423 -1.526183 0.746163 0.003754 3.871198 5.666129 3.725011 4.200065 -0.955407 -22.164648 0.000000 0.000000 0.000000 -16.648332 -14.928876 6.767161 -44.802273 -33.624893 7.233057 9.020045 -87.441789 -2.913606 0.000000 0.000000 0.000000 16.107898 24.282844 10.559624 39.035264 38.389472 8.481003 0.959469 68.249887 2.778792 0.000000 0.000000 0.000000 
-0.124413 0.883528 1.220034 0.939790 -14.775372 4.437889 -1.426007 -1.992898 -33.540235 0.730344 0.228449 31.810375 -1.459619 -3.493319 -1.126813 0.000000 0.000000 0.000000 0.330318 0.954724 -9.374935 0.736322 5.147600 46.832652 -9.623320 -22.859939 6.929361 0.000000 0.000000 0.000000 -5.802128 0.433799 9.738826 -0.402861 0.237449 0.633690 3.911174 5.521385 3.819820 3.721189 -0.808756 -21.496980 0.000000 0.000000 0.000000 -17.286526 -14.035704 6.443839 -45.122060 -31.321036 6.309733 -54.709970 -85.973618 57.403748 0.000000 0.000000 0.000000 14.968044 22.930084 9.613161 42.907443 35.212447 8.386132 16.174385 72.371160 13.903235 0.000000 0.000000 0.000000 
